<?xml version="1.0" encoding="UTF-8"?>
<!DOCTYPE svg PUBLIC "-//W3C//DTD SVG 1.1//EN" "http://www.w3.org/Graphics/SVG/1.1/DTD/svg11.dtd">
<svg xmlns="http://www.w3.org/2000/svg" version="1.1" width="512px" height="512px" style="shape-rendering:geometricPrecision; text-rendering:geometricPrecision; image-rendering:optimizeQuality; fill-rule:evenodd; clip-rule:evenodd" xmlns:xlink="http://www.w3.org/1999/xlink">
<g><path style="opacity:0.992" fill="#fefffe" d="M 511.5,291.5 C 511.5,303.167 511.5,314.833 511.5,326.5C 499.42,400.419 457.086,446.919 384.5,466C 376.904,467.544 369.237,468.544 361.5,469C 277.167,469.667 192.833,469.667 108.5,469C 48.1551,460.818 11.8218,426.985 -0.5,367.5C -0.5,357.167 -0.5,346.833 -0.5,336.5C 4.15184,306.199 17.9852,280.866 41,260.5C 43.3491,256.805 44.8491,252.805 45.5,248.5C 33.7337,181.962 52.7337,126.128 102.5,81C 157.331,39.2627 216.998,30.9293 281.5,56C 320.884,73.3839 349.717,101.551 368,140.5C 370.552,144.719 374.052,147.886 378.5,150C 441.634,163.472 483.8,200.638 505,261.5C 507.838,271.5 510.005,281.5 511.5,291.5 Z M 228.5,192.5 C 240.58,190.788 249.08,195.454 254,206.5C 255.289,244.138 255.956,281.804 256,319.5C 267.833,307.667 279.667,295.833 291.5,284C 304.933,273.973 316.433,275.806 326,289.5C 328.65,297.372 327.65,304.706 323,311.5C 302.5,332 282,352.5 261.5,373C 248.44,382.793 234.106,385.126 218.5,380C 213.494,377.499 208.827,374.499 204.5,371C 185,351.5 165.5,332 146,312.5C 137.921,300.969 139.087,290.469 149.5,281C 158.077,276.093 166.41,276.426 174.5,282C 187.014,294.681 199.681,307.181 212.5,319.5C 213.333,282.171 213.833,244.838 214,207.5C 216.351,199.984 221.184,194.984 228.5,192.5 Z"/></g>
</svg>
